<svg width="1098" height="808" viewBox="0 0 1098 808" fill="none" xmlns="http://www.w3.org/2000/svg">
<g clip-path="url(#clip0)">
<path opacity="0.1" d="M11.85 429.95C29.21 504.15 65.96 568.29 124.04 599.38C244.74 663.99 516.95 630.67 720.11 592.38C822.767 573.098 915.948 519.829 984.65 441.15L11.85 429.95Z" fill="#9D87CD"/>
<path opacity="0.1" d="M1077.2 80.71H965.73C963.175 80.71 960.724 79.6949 958.917 77.888C957.11 76.081 956.095 73.6304 956.095 71.075C956.095 68.5196 957.11 66.0689 958.917 64.262C960.724 62.4551 963.175 61.44 965.73 61.44H985C982.445 61.44 979.994 60.4249 978.187 58.618C976.38 56.8111 975.365 54.3604 975.365 51.805C975.365 49.2496 976.38 46.7989 978.187 44.992C979.994 43.1851 982.445 42.17 985 42.17H971.24C968.685 42.17 966.234 41.1549 964.427 39.348C962.62 37.541 961.605 35.0903 961.605 32.535C961.605 29.9796 962.62 27.5289 964.427 25.722C966.234 23.9151 968.685 22.9 971.24 22.9H1029.42C1016.51 16.9 1001.42 12.63 984.04 10.39C825.4 -9.99001 768.76 3.48999 748.78 17.39C724.13 34.49 696.63 47.07 667.24 53.13C569.36 73.32 386.31 97.62 220.4 45.35C137.94 19.35 76.65 63.27 39.92 136.63H1096.55C1095.17 115.31 1091.04 95.63 1083.46 78.39C1081.72 79.8889 1079.5 80.7123 1077.2 80.71Z" fill="#9D87CD"/>
<path opacity="0.1" d="M2.39002 275.1C-1.89188 318.251 -0.439251 361.78 6.71002 404.55L985.39 440.34C1012.63 409.001 1035.51 374.117 1053.39 336.64L2.39002 275.1ZM389.47 367.45H370.2C372.755 367.45 375.206 368.465 377.013 370.272C378.82 372.079 379.835 374.53 379.835 377.085C379.835 379.64 378.82 382.091 377.013 383.898C375.206 385.705 372.755 386.72 370.2 386.72H258.73C256.175 386.72 253.724 385.705 251.917 383.898C250.11 382.091 249.095 379.64 249.095 377.085C249.095 374.53 250.11 372.079 251.917 370.272C253.724 368.465 256.175 367.45 258.73 367.45H278C275.445 367.45 272.994 366.435 271.187 364.628C269.38 362.821 268.365 360.37 268.365 357.815C268.365 355.26 269.38 352.809 271.187 351.002C272.994 349.195 275.445 348.18 278 348.18H264.24C261.685 348.18 259.234 347.165 257.427 345.358C255.62 343.551 254.605 341.1 254.605 338.545C254.605 335.99 255.62 333.539 257.427 331.732C259.234 329.925 261.685 328.91 264.24 328.91H375.71C378.265 328.91 380.716 329.925 382.523 331.732C384.33 333.539 385.345 335.99 385.345 338.545C385.345 341.1 384.33 343.551 382.523 345.358C380.716 347.165 378.265 348.18 375.71 348.18H389.47C392.025 348.18 394.476 349.195 396.283 351.002C398.09 352.809 399.105 355.26 399.105 357.815C399.105 360.37 398.09 362.821 396.283 364.628C394.476 366.435 392.025 367.45 389.47 367.45V367.45Z" fill="#9D87CD"/>
<path opacity="0.1" d="M1096.6 137.29L28.11 163.29C15.12 196.69 6.54999 234.46 2.54999 273.62H1077.88C1084.9 250.622 1090.09 227.106 1093.41 203.29C1096.61 180.27 1097.89 158.02 1096.6 137.29ZM219.47 222.45H200.2C202.755 222.45 205.206 223.465 207.013 225.272C208.82 227.079 209.835 229.53 209.835 232.085C209.835 234.64 208.82 237.091 207.013 238.898C205.206 240.705 202.755 241.72 200.2 241.72H88.73C86.1746 241.72 83.7239 240.705 81.917 238.898C80.1101 237.091 79.095 234.64 79.095 232.085C79.095 229.53 80.1101 227.079 81.917 225.272C83.7239 223.465 86.1746 222.45 88.73 222.45H108C105.445 222.45 102.994 221.435 101.187 219.628C99.3801 217.821 98.365 215.37 98.365 212.815C98.365 210.26 99.3801 207.809 101.187 206.002C102.994 204.195 105.445 203.18 108 203.18H94.24C91.6846 203.18 89.2339 202.165 87.427 200.358C85.6201 198.551 84.605 196.1 84.605 193.545C84.605 190.99 85.6201 188.539 87.427 186.732C89.2339 184.925 91.6846 183.91 94.24 183.91H205.71C208.265 183.91 210.716 184.925 212.523 186.732C214.33 188.539 215.345 190.99 215.345 193.545C215.345 196.1 214.33 198.551 212.523 200.358C210.716 202.165 208.265 203.18 205.71 203.18H219.47C222.025 203.18 224.476 204.195 226.283 206.002C228.09 207.809 229.105 210.26 229.105 212.815C229.105 215.37 228.09 217.821 226.283 219.628C224.476 221.435 222.025 222.45 219.47 222.45V222.45Z" fill="#9D87CD"/>
<g opacity="0.1">
<path opacity="0.1" d="M677.55 623.28C677.55 623.28 705.75 553.78 758.41 528C780.576 517.341 798.686 499.778 810.02 477.95C815.314 467.535 819.642 456.656 822.95 445.45" stroke="#535461" stroke-width="2" stroke-miterlimit="10"/>
<path opacity="0.1" d="M856.04 429C850.55 435.9 822.14 446 822.14 446C822.14 446 825.56 416 831.05 409.15C833.776 406.121 837.554 404.245 841.615 403.907C845.676 403.568 849.713 404.792 852.903 407.328C856.092 409.865 858.194 413.522 858.779 417.555C859.364 421.588 858.388 425.692 856.05 429.03L856.04 429Z" fill="#9D87CD"/>
<path opacity="0.1" d="M846.29 483.66C837.93 486.47 808.61 479.48 808.61 479.48C808.61 479.48 827.76 456.2 836.12 453.39C840.048 452.348 844.226 452.84 847.804 454.766C851.383 456.692 854.095 459.907 855.389 463.759C856.684 467.612 856.463 471.812 854.773 475.508C853.083 479.204 850.05 482.119 846.29 483.66V483.66Z" fill="#9D87CD"/>
<path opacity="0.1" d="M793.43 548.26C784.8 546.47 763.01 525.63 763.01 525.63C763.01 525.63 791.29 515.2 799.93 516.99C803.84 518.08 807.189 520.614 809.3 524.081C811.411 527.547 812.126 531.686 811.299 535.66C810.473 539.633 808.168 543.145 804.85 545.482C801.532 547.82 797.45 548.809 793.43 548.25V548.26Z" fill="#9D87CD"/>
<path opacity="0.1" d="M742.43 588.14C733.62 587.83 708.62 570.98 708.62 570.98C708.62 570.98 734.74 555.95 743.55 556.23C745.739 556.162 747.92 556.543 749.955 557.352C751.991 558.16 753.839 559.378 755.385 560.93C756.931 562.482 758.142 564.335 758.943 566.374C759.743 568.413 760.117 570.594 760.04 572.783C759.963 574.973 759.437 577.123 758.496 579.1C757.554 581.078 756.216 582.841 754.566 584.281C752.915 585.721 750.986 586.806 748.898 587.47C746.811 588.134 744.609 588.362 742.43 588.14V588.14Z" fill="#9D87CD"/>
<path opacity="0.1" d="M781.31 459.95C782.44 468.7 801.53 492.02 801.53 492.02C801.53 492.02 814.1 464.62 812.98 455.87C812.199 451.883 809.931 448.343 806.635 445.967C803.339 443.591 799.263 442.558 795.234 443.077C791.205 443.596 787.524 445.629 784.938 448.762C782.352 451.896 781.055 455.895 781.31 459.95Z" fill="#9D87CD"/>
<path opacity="0.1" d="M722.25 507.34C725.94 515.34 751.14 531.89 751.14 531.89C751.14 531.89 754.94 501.98 751.25 493.98C750.464 491.938 749.267 490.079 747.734 488.519C746.201 486.958 744.364 485.728 742.337 484.905C740.31 484.082 738.135 483.683 735.948 483.734C733.76 483.785 731.607 484.284 729.62 485.2C727.633 486.116 725.855 487.429 724.396 489.06C722.937 490.69 721.828 492.602 721.137 494.678C720.446 496.754 720.189 498.95 720.38 501.13C720.572 503.309 721.208 505.426 722.25 507.35V507.34Z" fill="#9D87CD"/>
<path opacity="0.1" d="M671.17 561.28C673.45 569.8 695.5 590.36 695.5 590.36C695.5 590.36 704.3 561.53 702.01 553.01C700.701 549.167 697.98 545.965 694.398 544.054C690.816 542.143 686.642 541.664 682.721 542.716C678.799 543.767 675.424 546.27 673.28 549.717C671.135 553.164 670.381 557.298 671.17 561.28Z" fill="#9D87CD"/>
<path opacity="0.25" d="M856.04 429C850.55 435.9 822.14 446 822.14 446C822.14 446 825.56 416 831.05 409.15C833.776 406.121 837.554 404.245 841.615 403.907C845.676 403.568 849.713 404.792 852.903 407.328C856.092 409.865 858.194 413.522 858.779 417.555C859.364 421.588 858.388 425.692 856.05 429.03L856.04 429Z" fill="black"/>
<path opacity="0.25" d="M846.29 483.66C837.93 486.47 808.61 479.48 808.61 479.48C808.61 479.48 827.76 456.2 836.12 453.39C840.048 452.348 844.226 452.84 847.804 454.766C851.383 456.692 854.095 459.907 855.389 463.759C856.684 467.612 856.463 471.812 854.773 475.508C853.083 479.204 850.05 482.119 846.29 483.66V483.66Z" fill="black"/>
<path opacity="0.25" d="M793.43 548.26C784.8 546.47 763.01 525.63 763.01 525.63C763.01 525.63 791.29 515.2 799.93 516.99C803.84 518.08 807.189 520.614 809.3 524.081C811.411 527.547 812.126 531.686 811.299 535.66C810.473 539.633 808.168 543.145 804.85 545.482C801.532 547.82 797.45 548.809 793.43 548.25V548.26Z" fill="black"/>
<path opacity="0.25" d="M742.43 588.14C733.62 587.83 708.62 570.98 708.62 570.98C708.62 570.98 734.74 555.95 743.55 556.23C745.739 556.162 747.92 556.543 749.955 557.352C751.991 558.16 753.839 559.378 755.385 560.93C756.931 562.482 758.142 564.335 758.943 566.374C759.743 568.413 760.117 570.594 760.04 572.783C759.963 574.973 759.437 577.123 758.496 579.1C757.554 581.078 756.216 582.841 754.566 584.281C752.915 585.721 750.986 586.806 748.898 587.47C746.811 588.134 744.609 588.362 742.43 588.14V588.14Z" fill="black"/>
<path opacity="0.25" d="M781.31 459.95C782.44 468.7 801.53 492.02 801.53 492.02C801.53 492.02 814.1 464.62 812.98 455.87C812.199 451.883 809.931 448.343 806.635 445.967C803.339 443.591 799.263 442.558 795.234 443.077C791.205 443.596 787.524 445.629 784.938 448.762C782.352 451.896 781.055 455.895 781.31 459.95Z" fill="black"/>
<path opacity="0.25" d="M722.25 507.34C725.94 515.34 751.14 531.89 751.14 531.89C751.14 531.89 754.94 501.98 751.25 493.98C750.464 491.938 749.267 490.079 747.734 488.519C746.201 486.958 744.364 485.728 742.337 484.905C740.31 484.082 738.135 483.683 735.948 483.734C733.76 483.785 731.607 484.284 729.62 485.2C727.633 486.116 725.855 487.429 724.396 489.06C722.937 490.69 721.828 492.602 721.137 494.678C720.446 496.754 720.189 498.95 720.38 501.13C720.572 503.309 721.208 505.426 722.25 507.35V507.34Z" fill="black"/>
<path opacity="0.25" d="M671.17 561.28C673.45 569.8 695.5 590.36 695.5 590.36C695.5 590.36 704.3 561.53 702.01 553.01C700.701 549.167 697.98 545.965 694.398 544.054C690.816 542.143 686.642 541.664 682.721 542.716C678.799 543.767 675.424 546.27 673.28 549.717C671.135 553.164 670.381 557.298 671.17 561.28Z" fill="black"/>
</g>
<g opacity="0.1">
<path opacity="0.1" d="M657.55 521.66C657.55 521.66 661.11 446.74 702.24 404.95C719.586 387.526 730.815 364.947 734.24 340.6C735.782 329.028 736.261 317.339 735.67 305.68" stroke="#535461" stroke-width="2" stroke-miterlimit="10"/>
<path opacity="0.1" d="M761.55 279.19C758.66 287.52 735.2 306.45 735.2 306.45C735.2 306.45 728.5 277.06 731.39 268.73C731.963 266.611 732.966 264.633 734.337 262.918C735.707 261.204 737.415 259.789 739.356 258.763C741.296 257.737 743.427 257.121 745.616 256.954C747.804 256.787 750.004 257.072 752.078 257.791C754.152 258.51 756.055 259.648 757.67 261.135C759.285 262.621 760.577 264.424 761.466 266.431C762.354 268.438 762.82 270.607 762.835 272.802C762.849 274.997 762.412 277.171 761.55 279.19V279.19Z" fill="#9D87CD"/>
<path opacity="0.1" d="M770.43 333.95C763.43 339.37 733.49 342.51 733.49 342.51C733.49 342.51 743.84 314.19 750.79 308.77C752.425 307.316 754.341 306.213 756.419 305.529C758.497 304.845 760.693 304.594 762.872 304.793C765.051 304.991 767.166 305.634 769.087 306.682C771.007 307.731 772.692 309.161 774.038 310.887C775.383 312.612 776.361 314.594 776.91 316.712C777.459 318.83 777.567 321.038 777.229 323.2C776.891 325.361 776.113 327.431 774.944 329.28C773.774 331.129 772.238 332.718 770.43 333.95V333.95Z" fill="#9D87CD"/>
<path opacity="0.1" d="M741.98 412.47C733.24 413.64 705.78 401.21 705.78 401.21C705.78 401.21 729.01 381.99 737.78 380.82C739.926 380.389 742.137 380.404 744.277 380.862C746.417 381.32 748.44 382.212 750.222 383.483C752.003 384.755 753.505 386.378 754.634 388.253C755.763 390.127 756.495 392.214 756.786 394.383C757.077 396.552 756.919 398.758 756.323 400.863C755.727 402.969 754.706 404.93 753.322 406.626C751.938 408.321 750.221 409.714 748.277 410.72C746.333 411.725 744.203 412.321 742.02 412.47H741.98Z" fill="#9D87CD"/>
<path opacity="0.1" d="M707.09 467C698.67 469.63 669.5 462 669.5 462C669.5 462 689.14 439.13 697.56 436.5C701.511 435.536 705.681 436.113 709.223 438.113C712.764 440.113 715.41 443.387 716.624 447.269C717.838 451.151 717.528 455.349 715.757 459.011C713.986 462.672 710.887 465.522 707.09 466.98V467Z" fill="#9D87CD"/>
<path opacity="0.1" d="M701.26 333.17C705.26 341.05 730.98 356.72 730.98 356.72C730.98 356.72 733.75 326.72 729.79 318.82C727.735 315.309 724.421 312.713 720.52 311.559C716.619 310.405 712.425 310.78 708.791 312.608C705.157 314.435 702.356 317.579 700.957 321.399C699.558 325.218 699.666 329.427 701.26 333.17V333.17Z" fill="#9D87CD"/>
<path opacity="0.1" d="M661.26 397.47C667.4 403.8 696.66 411.05 696.66 411.05C696.66 411.05 690.33 381.58 684.19 375.25C681.179 372.512 677.239 371.024 673.17 371.089C669.101 371.154 665.209 372.766 662.288 375.599C659.366 378.432 657.633 382.271 657.442 386.336C657.251 390.401 658.617 394.386 661.26 397.48V397.47Z" fill="#9D87CD"/>
<path opacity="0.1" d="M630.96 465.29C635.96 472.57 663.56 484.66 663.56 484.66C663.56 484.66 662.3 454.54 657.32 447.26C654.801 444.105 651.182 442.019 647.19 441.421C643.197 440.822 639.126 441.755 635.792 444.032C632.458 446.309 630.109 449.763 629.214 453.7C628.32 457.637 628.947 461.766 630.97 465.26L630.96 465.29Z" fill="#9D87CD"/>
</g>
<path opacity="0.1" d="M299.74 775.76C339.06 788.98 387.03 780.94 431.64 781.87C437.75 782 444.21 782.38 449.11 784.66C454.01 786.94 456.42 790.66 459.78 793.81C472.28 805.6 497.89 809.39 520.28 807.39C542.67 805.39 563.2 798.77 584.28 793.73C620.8 785.01 662.55 781.05 698.57 790.55C701.88 791.42 705.36 792.42 708.9 792.08C716.8 791.3 719.15 784.98 724.67 781.37C734.67 774.85 756.3 776.62 760.67 768.03C763.24 763.03 757.33 757.83 750.9 754.39C726.28 741.23 691.06 739.06 658.84 741.09C626.62 743.12 594.94 748.72 562.55 748.74C522.2 748.74 483.21 740.15 443.25 736.63C415.57 734.19 385.36 734.49 359.41 741.63C331.36 749.45 325.16 766.89 299.74 775.76Z" fill="#9D87CD"/>
<path d="M372.51 184.9H365.51V283.9H372.51V184.9Z" fill="#535461"/>
<path d="M372.51 317.9H365.51V373.9H372.51V317.9Z" fill="#535461"/>
<path d="M638.41 87.9H417.61C391.597 87.9 370.51 108.987 370.51 135V724.8C370.51 750.813 391.597 771.9 417.61 771.9H638.41C664.423 771.9 685.51 750.813 685.51 724.8V135C685.51 108.987 664.423 87.9 638.41 87.9Z" fill="#535461"/>
<path d="M638.41 119.9H417.61C391.597 119.9 370.51 140.987 370.51 167V695.8C370.51 721.813 391.597 742.9 417.61 742.9H638.41C664.423 742.9 685.51 721.813 685.51 695.8V167C685.51 140.987 664.423 119.9 638.41 119.9Z" fill="url(#paint0_linear)"/>
<path d="M551.01 102.9H506.01C504.077 102.9 502.51 104.467 502.51 106.4C502.51 108.333 504.077 109.9 506.01 109.9H551.01C552.943 109.9 554.51 108.333 554.51 106.4C554.51 104.467 552.943 102.9 551.01 102.9Z" fill="#EAEAF3"/>
<path d="M572.51 111.9C575.271 111.9 577.51 109.661 577.51 106.9C577.51 104.139 575.271 101.9 572.51 101.9C569.749 101.9 567.51 104.139 567.51 106.9C567.51 109.661 569.749 111.9 572.51 111.9Z" fill="#EAEAF3"/>
<path d="M446.31 396.1V469.1C446.335 471.389 445.905 473.66 445.045 475.781C444.184 477.902 442.911 479.831 441.298 481.456C439.686 483.081 437.766 484.369 435.652 485.245C433.537 486.121 431.269 486.568 428.98 486.56C419.34 486.56 409.98 478.75 409.98 469.1V396.1C409.98 386.58 419.31 378.77 428.98 378.77C433.571 378.788 437.968 380.62 441.214 383.866C444.46 387.112 446.292 391.509 446.31 396.1V396.1ZM453.12 495.04C453.115 497.491 453.594 499.918 454.529 502.183C455.464 504.448 456.838 506.506 458.571 508.239C460.304 509.972 462.362 511.346 464.627 512.281C466.892 513.217 469.319 513.695 471.77 513.69H484.31L484.5 552.2C484.5 575.45 519.29 575.27 519.29 552.2V513.7H542.73V552.21C542.73 575.34 577.73 575.4 577.73 552.21V513.7H590.46C592.901 513.692 595.317 513.204 597.57 512.262C599.822 511.321 601.867 509.945 603.588 508.213C605.308 506.481 606.671 504.427 607.598 502.169C608.525 499.91 608.998 497.491 608.99 495.05V381.95H453.12V495.04ZM609.41 375.87H452.41C452.41 348.87 468.54 325.45 492.49 313.23L480.49 290.98C478.73 287.89 483.2 285.98 484.71 288.59L496.94 311.03C507.701 306.322 519.319 303.892 531.065 303.892C542.811 303.892 554.429 306.322 565.19 311.03L577.35 288.66C578.93 285.95 583.35 287.97 581.57 291.05L569.57 313.23C593.28 325.45 609.41 348.9 609.41 375.87ZM501.83 340.87C501.83 339.114 501.133 337.43 499.891 336.189C498.65 334.947 496.966 334.25 495.21 334.25C493.5 334.316 491.882 335.043 490.696 336.276C489.51 337.509 488.847 339.154 488.847 340.865C488.847 342.576 489.51 344.221 490.696 345.454C491.882 346.687 493.5 347.414 495.21 347.48C496.961 347.48 498.64 346.787 499.88 345.552C501.121 344.317 501.822 342.641 501.83 340.89V340.87ZM573.3 340.87C573.28 339.581 572.879 338.327 572.146 337.266C571.414 336.205 570.383 335.386 569.185 334.91C567.987 334.435 566.675 334.325 565.414 334.595C564.154 334.866 563.002 335.503 562.104 336.428C561.206 337.353 560.602 338.523 560.368 339.79C560.135 341.058 560.283 342.367 560.793 343.551C561.303 344.734 562.153 345.74 563.234 346.442C564.316 347.143 565.581 347.508 566.87 347.49C568.592 347.451 570.231 346.737 571.433 345.503C572.635 344.269 573.306 342.613 573.3 340.89V340.87ZM633.04 378.75C630.762 378.743 628.506 379.187 626.4 380.056C624.295 380.924 622.382 382.201 620.771 383.811C619.161 385.422 617.884 387.335 617.016 389.44C616.147 391.546 615.703 393.802 615.71 396.08V469.08C615.701 471.365 616.142 473.629 617.008 475.743C617.874 477.857 619.148 479.779 620.757 481.401C622.367 483.022 624.28 484.311 626.387 485.192C628.495 486.074 630.755 486.532 633.04 486.54C642.75 486.54 652.04 478.73 652.04 469.08V396.08C652.01 386.4 642.68 378.77 633.04 378.77V378.75Z" fill="white"/>
<path d="M519.01 569.46H454.01V572.46H519.01V569.46Z" fill="#535461"/>
<path d="M586.01 569.46H543.01V572.46H586.01V569.46Z" fill="#535461"/>
<path d="M440.01 569.46H397.01V572.46H440.01V569.46Z" fill="#535461"/>
<path d="M654.01 569.46H611.01V572.46H654.01V569.46Z" fill="#535461"/>
</g>
<defs>
<linearGradient id="paint0_linear" x1="528" y1="199" x2="528.01" y2="742.9" gradientUnits="userSpaceOnUse">
<stop stop-color="#9D87CD"/>
<stop offset="1" stop-color="#24B8B8" stop-opacity="0.89"/>
</linearGradient>
<clipPath id="clip0">
<rect width="1097.1" height="807.9" fill="white"/>
</clipPath>
</defs>
</svg>
