<svg width="1440" height="207" viewBox="0 0 1440 207" fill="none" xmlns="http://www.w3.org/2000/svg">
<path d="M0 47L20 41.7C40 36 80 26 120 25.7C160 26 200 36 240 52.3C280 68 320 90 360 111C400 132 440 154 480 143C520 132 560 90 600 95C640 100 680 154 720 164.3C760 175 800 143 840 111C880 79 920 47 960 25.7C1000 4 1040 -5.99999 1080 4.30001C1120 15 1160 47 1200 47C1240 47 1280 15 1320 20.3C1360 26 1400 68 1420 89.7L1440 111V207H1420C1400 207 1360 207 1320 207C1280 207 1240 207 1200 207C1160 207 1120 207 1080 207C1040 207 1000 207 960 207C920 207 880 207 840 207C800 207 760 207 720 207C680 207 640 207 600 207C560 207 520 207 480 207C440 207 400 207 360 207C320 207 280 207 240 207C200 207 160 207 120 207C80 207 40 207 20 207H0V47Z" fill="url(#paint0_linear)"/>
<defs>
<linearGradient id="paint0_linear" x1="720" y1="-59.5" x2="720" y2="271" gradientUnits="userSpaceOnUse">
<stop stop-color="#9B35BE" stop-opacity="0.6"/>
<stop offset="1" stop-color="#24B8B8"/>
</linearGradient>
</defs>
</svg>
